<?xml version="1.0" encoding="UTF-8"?>
<svg id="uuid-5f489dcd-e6a8-4c75-a5d7-3e462cb369dc" data-name="图层 1" xmlns="http://www.w3.org/2000/svg" viewBox="0 0 200 200">
  <path d="M177.35,24.61h-1.01c-.2,0-2.42.2-5.95.2-5.85,0-17.35-.4-28.14-2.72-14.02-3.03-30.15-17.24-34.89-19.97C104.94.71,102.22,0,99.5,0s-5.45.71-7.77,2.12c-.61.3-17.55,16.44-34.09,20.07-10.89,2.42-22.49,2.72-28.34,2.72-3.53,0-5.85-.1-6.05-.1h-.91c-3.53,0-7.06,1.21-9.58,3.33-2.82,2.22-4.44,5.55-4.44,9.18v31.26c0,115.67,85.21,130.59,88.84,131.2,1.61.3,3.33.3,5.04,0,3.63-.61,89.45-15.53,89.45-131.2v-31.26c-.1-3.53-1.71-6.86-4.54-9.18-2.92-2.42-6.25-3.63-9.78-3.53Z" style="fill: #31bc69; opacity: .14; stroke-width: 0px;"/>
  <path d="M170.24,42.19c-2.22-1.71-5.04-2.72-7.77-2.62h-.81c-1.61.1-3.23.1-4.84.1-4.74,0-14.02-.3-22.69-2.22-11.29-2.42-24.3-13.82-28.14-16.14-1.92-1.11-4.13-1.71-6.35-1.71s-4.34.61-6.25,1.71c-.5.3-14.12,13.21-27.43,16.14-8.77,1.92-18.15,2.22-22.89,2.22-1.61,0-3.23,0-4.84-.1h-.71c-2.82,0-5.55.91-7.77,2.72-2.32,1.92-3.63,4.54-3.63,7.36v23.09c1.41,92.78,68.68,107,71.6,107.5,1.31.2,2.72.2,4.03,0,2.92-.5,71.1-14.32,72.1-107.5v-23.19c-.1-2.92-1.41-5.55-3.63-7.36ZM128.32,143.12l-.05.05h-56.21c-1.63,0-3.04-1.41-2.87-3.14.11-1.52,1.46-2.66,2.98-2.66h56.05c1.57-.05,2.87,1.19,2.93,2.82.05,1.57-1.19,2.87-2.82,2.93ZM136.35,130.76c0,.7-.6,1.19-1.19,1.19h-70.31v-.05c-.7,0-1.19-.6-1.19-1.19v-15.88c0-2.33,1.9-4.17,4.17-4.17h21.95l.05-1.57c.27-4.66-.6-15.39-5.1-22.6-2.33-3.74-3.47-7.26-3.47-10.9,0-10.3,8.4-18.76,18.76-18.76,9.22,0,16.97,6.94,18.48,16.05.76,4.44-.33,8.78-3.25,13.55-4.44,7.26-5.26,17.94-5.04,22.66l.05,1.57h21.9c2.33,0,4.17,1.9,4.17,4.17v15.94Z" style="fill: #31bc69; stroke-width: 0px;"/>
</svg>